<?xml version="1.0" encoding="UTF-8" standalone="no"?>
<!-- Created with Inkscape (http://www.inkscape.org/) -->
<svg id="svg3263" xmlns:rdf="http://www.w3.org/1999/02/22-rdf-syntax-ns#" xmlns="http://www.w3.org/2000/svg" xml:space="preserve" height="15.516" width="15.516" version="1.1" xmlns:cc="http://creativecommons.org/ns#" xmlns:xlink="http://www.w3.org/1999/xlink" viewBox="0 0 15.516 15.516" xmlns:dc="http://purl.org/dc/elements/1.1/"><metadata id="metadata3351"><rdf:RDF><cc:Work rdf:about=""><dc:format>image/svg+xml</dc:format><dc:type rdf:resource="http://purl.org/dc/dcmitype/StillImage"/><dc:title/></cc:Work></rdf:RDF></metadata><g id="g3267" transform="translate(-6.9860005,-0.53399992)"><defs id="defs3269"><path id="SVGID_8_" d="m7.236,8.315c0,4.146,3.361,7.508,7.508,7.508s7.508-3.362,7.508-7.508-3.361-7.508-7.508-7.508-7.508,3.362-7.508,7.508"/></defs><clipPath id="SVGID_9_"><use id="use3273" xlink:href="#SVGID_8_" height="17" width="28" y="0" x="0"/></clipPath><rect id="rect3275" clip-path="url(#SVGID_9_)" height="8.008" width="27.713" y="0.567" x="0" fill="#FFF"/></g><g id="g3277" transform="translate(-6.9860005,-0.53399992)"><defs id="defs3279"><path id="SVGID_7_" d="m7.236,8.315c0,4.146,3.361,7.508,7.508,7.508s7.508-3.362,7.508-7.508-3.361-7.508-7.508-7.508-7.508,3.362-7.508,7.508"/></defs><clipPath id="SVGID_10_"><use id="use3283" xlink:href="#SVGID_7_" height="17" width="28" y="0" x="0"/></clipPath><rect id="rect3285" clip-path="url(#SVGID_10_)" height="16.358" width="16.015" y="0" x="6.705" fill="#2d61a5"/></g><g id="g3287" transform="translate(-6.9860005,-0.53399992)"><defs id="defs3289"><path id="SVGID_6_" d="m7.236,8.315c0,4.146,3.361,7.508,7.508,7.508s7.508-3.362,7.508-7.508-3.361-7.508-7.508-7.508-7.508,3.362-7.508,7.508"/></defs><clipPath id="SVGID_11_"><use id="use3293" xlink:href="#SVGID_6_" height="17" width="28" y="0" x="0"/></clipPath><polygon id="polygon3295" points="20.558,3.132,7.971,12.05,8.697,13.065,21.28,4.149" fill="#b12125" clip-path="url(#SVGID_11_)"/></g><g id="g3297" transform="translate(-6.9860005,-0.53399992)"><defs id="defs3299"><path id="SVGID_5_" d="m7.236,8.315c0,4.146,3.361,7.508,7.508,7.508s7.508-3.362,7.508-7.508-3.361-7.508-7.508-7.508-7.508,3.362-7.508,7.508"/></defs><clipPath id="SVGID_12_"><use id="use3303" xlink:href="#SVGID_5_" height="17" width="28" y="0" x="0"/></clipPath><polygon id="polygon3305" clip-path="url(#SVGID_12_)" stroke="#FFF" points="20.558,3.132,7.971,12.05,8.697,13.065,21.28,4.149" stroke-width="0.5" fill="none"/></g><g id="g3307" transform="translate(-6.9860005,-0.53399992)"><defs id="defs3309"><path id="SVGID_4_" d="m7.236,8.315c0,4.146,3.361,7.508,7.508,7.508s7.508-3.362,7.508-7.508-3.361-7.508-7.508-7.508-7.508,3.362-7.508,7.508"/></defs><clipPath id="SVGID_13_"><use id="use3313" xlink:href="#SVGID_4_" height="17" width="28" y="0" x="0"/></clipPath><polygon id="polygon3315" points="8.92,3.049,21.113,11.982,20.387,12.998,8.197,4.065" fill="#b12125" clip-path="url(#SVGID_13_)"/></g><g id="g3317" transform="translate(-6.9860005,-0.53399992)"><defs id="defs3319"><path id="SVGID_3_" d="m7.236,8.315c0,4.146,3.361,7.508,7.508,7.508s7.508-3.362,7.508-7.508-3.361-7.508-7.508-7.508-7.508,3.362-7.508,7.508"/></defs><clipPath id="SVGID_14_"><use id="use3323" xlink:href="#SVGID_3_" height="17" width="28" y="0" x="0"/></clipPath><polygon id="polygon3325" clip-path="url(#SVGID_14_)" stroke="#FFF" points="8.53,2.815,21.613,12.315,20.887,13.331,7.808,3.832" stroke-width="0.5" fill="none"/></g><g id="g3327" transform="translate(-6.9860005,-0.53399992)"><defs id="defs3329"><path id="SVGID_2_" d="m7.236,8.315c0,4.146,3.361,7.508,7.508,7.508s7.508-3.362,7.508-7.508-3.361-7.508-7.508-7.508-7.508,3.362-7.508,7.508"/></defs><clipPath id="SVGID_15_"><use id="use3333" xlink:href="#SVGID_2_" height="17" width="28" y="0" x="0"/></clipPath><polygon id="polygon3335" points="13.082,6.794,6.893,6.794,6.893,9.58,13.082,9.58,13.082,16.245,16.285,16.245,16.285,9.58,22.57,9.58,22.57,6.794,16.285,6.794,16.285,0.417,13.082,0.417" fill="#b12125" clip-path="url(#SVGID_15_)"/></g><g id="g3337" transform="translate(-6.9860005,-0.53399992)"><defs id="defs3339"><path id="SVGID_1_" d="m7.236,8.315c0,4.146,3.361,7.508,7.508,7.508s7.508-3.362,7.508-7.508-3.361-7.508-7.508-7.508-7.508,3.362-7.508,7.508"/></defs><clipPath id="SVGID_16_"><use id="use3343" xlink:href="#SVGID_1_" height="17" width="28" y="0" x="0"/></clipPath><polygon id="polygon3345" clip-path="url(#SVGID_16_)" stroke="#FFF" points="13.082,6.794,6.893,6.794,6.893,9.58,13.082,9.58,13.082,16.245,16.285,16.245,16.285,9.58,22.683,9.58,22.683,6.794,16.285,6.794,16.285,0.417,13.082,0.417" stroke-width="0.75" fill="none"/></g><circle id="circle3347" stroke-width="0.5" transform="translate(-6.9860005,-0.53399992)" stroke="#b3b3b3" cy="8.292" cx="14.744" r="7.508" fill="none"/></svg>
