<?xml version="1.0" encoding="UTF-8" standalone="no"?>
<!-- Created with Inkscape (http://www.inkscape.org/) -->
<svg id="svg3079" xmlns:rdf="http://www.w3.org/1999/02/22-rdf-syntax-ns#" xmlns="http://www.w3.org/2000/svg" xml:space="preserve" height="15.516" width="15.516" version="1.1" xmlns:cc="http://creativecommons.org/ns#" xmlns:xlink="http://www.w3.org/1999/xlink" viewBox="-0.246 -0.68 15.516 15.516" xmlns:dc="http://purl.org/dc/elements/1.1/"><metadata id="metadata3117"><rdf:RDF><cc:Work rdf:about=""><dc:format>image/svg+xml</dc:format><dc:type rdf:resource="http://purl.org/dc/dcmitype/StillImage"/><dc:title/></cc:Work></rdf:RDF></metadata><g id="g3083" transform="translate(-6.7050001,-0.71900003)"><defs id="defs3085"><path id="SVGID_3_" d="m6.711,7.797c0,4.146,3.361,7.508,7.508,7.508,4.146,0,7.508-3.361,7.508-7.508s-3.361-7.508-7.508-7.508-7.508,3.362-7.508,7.508"/></defs><clipPath id="SVGID_4_"><use id="use3089" xlink:href="#SVGID_3_" height="18" width="29" y="0" x="0"/></clipPath><rect id="rect3091" clip-path="url(#SVGID_4_)" height="5.742" width="27.713" y="0" x="0.068" fill="#383837"/></g><g id="g3093" transform="translate(-6.7050001,-0.71900003)"><defs id="defs3095"><path id="SVGID_2_" d="m6.711,7.797c0,4.146,3.361,7.508,7.508,7.508,4.146,0,7.508-3.361,7.508-7.508s-3.361-7.508-7.508-7.508-7.508,3.362-7.508,7.508"/></defs><clipPath id="SVGID_5_"><use id="use3099" xlink:href="#SVGID_2_" height="18" width="29" y="0" x="0"/></clipPath><rect id="rect3101" clip-path="url(#SVGID_5_)" height="5.74" width="27.713" y="5.102" x="0" fill="#b12125"/></g><g id="g3103" transform="translate(-6.7050001,-0.71900003)"><defs id="defs3105"><path id="SVGID_1_" d="m6.711,7.797c0,4.146,3.361,7.508,7.508,7.508,4.146,0,7.508-3.361,7.508-7.508s-3.361-7.508-7.508-7.508-7.508,3.362-7.508,7.508"/></defs><clipPath id="SVGID_6_"><use id="use3109" xlink:href="#SVGID_1_" height="18" width="29" y="0" x="0"/></clipPath><rect id="rect3111" clip-path="url(#SVGID_6_)" height="5.74" width="27.713" y="10.85" x="0" fill="#f1dc20"/></g><circle id="circle3113" stroke-width="0.5" transform="translate(-6.7050001,-0.71900003)" stroke="#b3b3b3" cy="7.797" cx="14.217" r="7.508" fill="none"/></svg>
